<svg aria-hidden="true" xmlns="http://www.w3.org/2000/svg" xmlns:xlink="http://www.w3.org/1999/xlink"><symbol viewBox="0 0 35 35" fill="none" id="ajax" xmlns="http://www.w3.org/2000/svg">
<g clip-path="url(#aclip0_6_155)">
<path d="M29.1667 17.5C28.272 17.4998 27.3894 17.7058 26.5871 18.1018C25.7849 18.4979 25.0847 19.0734 24.5408 19.7838L24.4388 19.74C24.8398 18.4975 24.9 17.1702 24.6128 15.8965C24.3257 14.6229 23.7019 13.4497 22.8065 12.4995C21.9111 11.5493 20.777 10.8569 19.5227 10.4946C18.2683 10.1324 16.9397 10.1136 15.6756 10.4402L15.5429 10.1894C16.6022 9.2469 17.2815 7.95046 17.4534 6.54303C17.6252 5.1356 17.278 3.7138 16.4766 2.54408C15.6753 1.37436 14.4749 0.53701 13.1004 0.188967C11.7259 -0.159076 10.2716 0.00607443 9.01016 0.653467C7.7487 1.30086 6.76663 2.38606 6.24799 3.70568C5.72934 5.0253 5.70974 6.48877 6.19284 7.82182C6.67594 9.15486 7.62859 10.266 8.87225 10.9469C10.1159 11.6279 11.5652 11.8319 12.9486 11.5208L13.055 11.7206C11.5968 12.8397 10.6158 14.4689 10.309 16.2812C10.0023 18.0936 10.3925 19.9549 11.4013 21.4915L8.65231 24.0625C7.40976 23.376 5.95951 23.1662 4.57334 23.4723C3.18716 23.7784 1.96019 24.5796 1.12234 25.7255C0.284502 26.8715 -0.106704 28.2836 0.0220332 29.6974C0.15077 31.1111 0.790616 32.4294 1.82167 33.4052C2.85272 34.3809 4.20421 34.9473 5.62289 34.998C7.04156 35.0487 8.43005 34.5804 9.52816 33.6807C10.6263 32.7811 11.3586 31.5119 11.588 30.1109C11.8174 28.71 11.528 27.2735 10.7742 26.0706L13.4546 23.5652C14.9268 24.5492 16.707 24.963 18.4623 24.7292C20.2175 24.4954 21.8274 23.63 22.9906 22.295L23.3975 22.4685C23.221 23.6461 23.409 24.8495 23.9364 25.917C24.4638 26.9845 25.3052 27.8651 26.3477 28.4405C27.3902 29.0158 28.5837 29.2584 29.7681 29.1356C30.9524 29.0127 32.0708 28.5304 32.9731 27.7534C33.8753 26.9764 34.5181 25.9419 34.8152 24.7889C35.1123 23.6358 35.0494 22.4195 34.6351 21.3032C34.2207 20.1869 33.4746 19.2242 32.4971 18.5444C31.5195 17.8645 30.3574 17.5001 29.1667 17.5ZM8.75001 5.83334C8.75001 5.25648 8.92107 4.69257 9.24156 4.21293C9.56205 3.73329 10.0176 3.35945 10.5505 3.13869C11.0835 2.91794 11.6699 2.86018 12.2357 2.97272C12.8015 3.08526 13.3212 3.36304 13.7291 3.77095C14.137 4.17885 14.4148 4.69855 14.5273 5.26433C14.6398 5.83011 14.5821 6.41655 14.3613 6.9495C14.1406 7.48245 13.7667 7.93797 13.2871 8.25846C12.8075 8.57895 12.2435 8.75001 11.6667 8.75001C10.8931 8.75001 10.1513 8.44272 9.60429 7.89574C9.05731 7.34876 8.75001 6.60689 8.75001 5.83334ZM5.83335 32.0833C5.25649 32.0833 4.69258 31.9123 4.21293 31.5918C3.73329 31.2713 3.35945 30.8158 3.1387 30.2828C2.91794 29.7499 2.86018 29.1634 2.97272 28.5977C3.08526 28.0319 3.36305 27.5122 3.77095 27.1043C4.17886 26.6964 4.69856 26.4186 5.26433 26.3061C5.83011 26.1935 6.41656 26.2513 6.94951 26.472C7.48246 26.6928 7.93798 27.0666 8.25847 27.5463C8.57895 28.0259 8.75001 28.5898 8.75001 29.1667C8.75001 29.9402 8.44272 30.6821 7.89574 31.2291C7.34876 31.7761 6.6069 32.0833 5.83335 32.0833ZM17.5 21.875C16.5531 21.8732 15.6324 21.5641 14.876 20.9944C14.1197 20.4246 13.5687 19.6248 13.3057 18.7152C13.0427 17.8055 13.0819 16.8351 13.4175 15.9496C13.7531 15.0642 14.3669 14.3115 15.1667 13.8046L15.7602 13.4881C16.3566 13.2287 17.0034 13.1055 17.6534 13.1275C18.3034 13.1495 18.9403 13.3162 19.5178 13.6153C20.0953 13.9145 20.5988 14.3386 20.9917 14.8569C21.3846 15.3752 21.657 15.9746 21.7891 16.6114C21.9213 17.2482 21.9097 17.9065 21.7554 18.5383C21.601 19.1701 21.3078 19.7595 20.8969 20.2637C20.4861 20.7679 19.968 21.1741 19.3804 21.4528C18.7928 21.7316 18.1504 21.8758 17.5 21.875ZM29.1667 26.25C28.5898 26.25 28.0259 26.0789 27.5463 25.7585C27.0666 25.438 26.6928 24.9825 26.472 24.4495C26.2513 23.9166 26.1935 23.3301 26.3061 22.7643C26.4186 22.1986 26.6964 21.6789 27.1043 21.2709C27.5122 20.863 28.0319 20.5853 28.5977 20.4727C29.1634 20.3602 29.7499 20.4179 30.2828 20.6387C30.8158 20.8594 31.2713 21.2333 31.5918 21.7129C31.9123 22.1926 32.0833 22.7565 32.0833 23.3333C32.0833 24.1069 31.7761 24.8488 31.2291 25.3957C30.6821 25.9427 29.9402 26.25 29.1667 26.25Z" fill="currentColor"/>
</g>
<defs>
<clipPath id="aclip0_6_155">
<rect width="35" height="35" fill="currentColor"/>
</clipPath>
</defs>
</symbol><symbol viewBox="0 0 35 35" fill="none" id="anchor" xmlns="http://www.w3.org/2000/svg">
<g clip-path="url(#bclip0_6_167)">
<path d="M34.1133 18.9598C33.3579 18.0323 32.2408 17.5 31.0465 17.5H29.1667C28.3602 17.5 27.7083 18.1533 27.7083 18.9583C27.7083 19.7633 28.3602 20.4167 29.1667 20.4167H31.0465C31.3585 20.4167 31.6517 20.5567 31.8515 20.8017C31.9623 20.9373 32.1373 21.2246 32.0571 21.614C30.7694 27.8717 24.6181 31.4694 18.9598 32.0046V20.4167H21.8765C22.6829 20.4167 23.3348 19.7633 23.3348 18.9583C23.3348 18.1533 22.6829 17.5 21.8765 17.5H18.9598V11.4596C21.4696 10.8077 23.3348 8.54292 23.3348 5.83333C23.3348 2.61625 20.7185 0 17.5015 0C14.2844 0 11.6681 2.61625 11.6681 5.83333C11.6681 8.54292 13.5348 10.8077 16.0431 11.4596V17.5H13.1265C12.3215 17.5 11.6681 18.1533 11.6681 18.9583C11.6681 19.7633 12.3215 20.4167 13.1265 20.4167H16.0431V32.0046C10.3848 31.4694 4.23208 27.8717 2.94438 21.614C2.86417 21.2231 3.03917 20.9373 3.15 20.8002C3.34979 20.5567 3.64292 20.4152 3.955 20.4152H5.83479C6.63979 20.4152 7.29313 19.7619 7.29313 18.9569C7.29313 18.1519 6.63979 17.4985 5.83479 17.4985H3.955C2.76354 17.4985 1.64646 18.0294 0.889584 18.9569C0.142917 19.8727 -0.150208 21.0554 0.0860424 22.2031C1.81563 30.6046 10.1544 35 17.5 35C24.8456 35 33.1844 30.6046 34.9125 22.2031C35.1488 21.0569 34.8585 19.8742 34.1133 18.9598ZM14.5833 5.83333C14.5833 4.22479 15.8915 2.91667 17.5 2.91667C19.1085 2.91667 20.4167 4.22479 20.4167 5.83333C20.4167 7.44188 19.1085 8.75 17.5 8.75C15.8915 8.75 14.5833 7.44188 14.5833 5.83333Z" fill="currentColor"/>
</g>
<defs>
<clipPath id="bclip0_6_167">
<rect width="35" height="35" fill="currentColor"/>
</clipPath>
</defs>
</symbol><symbol viewBox="0 0 35 35" fill="none" id="animation" xmlns="http://www.w3.org/2000/svg">
<g clip-path="url(#cclip0_7_67)">
<path d="M24.7917 30.625C24.7917 32.639 23.1598 34.2708 21.1458 34.2708C19.651 34.2708 18.3706 33.3696 17.8077 32.0833H1.45833C0.651875 32.0833 0 31.43 0 30.625C0 29.82 0.651875 29.1667 1.45833 29.1667H17.8077C18.3706 27.8804 19.651 26.9792 21.1458 26.9792C23.1598 26.9792 24.7917 28.611 24.7917 30.625ZM25.5208 5.83333C23.5069 5.83333 21.875 7.46521 21.875 9.47917C21.875 11.4931 23.5069 13.125 25.5208 13.125C27.5348 13.125 29.1667 11.4931 29.1667 9.47917C29.1667 7.46521 27.5348 5.83333 25.5208 5.83333ZM35 7.29167V17.5C35 21.5206 31.729 24.7917 27.7083 24.7917H7.29167C3.27104 24.7917 0 21.5206 0 17.5V7.29167C0 3.27104 3.27104 0 7.29167 0H27.7083C31.729 0 35 3.27104 35 7.29167ZM32.0833 7.29167C32.0833 4.87958 30.1204 2.91667 27.7083 2.91667H7.29167C4.87958 2.91667 2.91667 4.87958 2.91667 7.29167V17.5C2.91667 19.9121 4.87958 21.875 7.29167 21.875H27.7083C30.1204 21.875 32.0833 19.9121 32.0833 17.5V7.29167ZM16.854 8.04125C13.8673 9.51854 12.1771 11.8271 11.2321 13.771C9.91958 12.3812 8.295 11.8679 7.63583 11.7075C6.85708 11.515 6.06375 11.9992 5.87562 12.7808C5.68604 13.564 6.16583 14.3515 6.94896 14.541C7.74229 14.7335 9.63958 15.435 10.1004 17.78C10.236 18.4654 10.8369 18.954 11.531 18.954C11.5442 18.954 11.5588 18.954 11.5704 18.954C12.2821 18.9335 12.8771 18.4012 12.9762 17.6954C13.004 17.4985 13.7025 12.8523 18.146 10.6546C18.8679 10.2973 19.164 9.42229 18.8067 8.70042C18.4479 7.97854 17.5744 7.68104 16.8525 8.03979L16.854 8.04125ZM33.5417 29.1667H29.1667C28.3602 29.1667 27.7083 29.82 27.7083 30.625C27.7083 31.43 28.3602 32.0833 29.1667 32.0833H33.5417C34.3481 32.0833 35 31.43 35 30.625C35 29.82 34.3481 29.1667 33.5417 29.1667Z" fill="currentColor"/>
</g>
<defs>
<clipPath id="cclip0_7_67">
<rect width="35" height="35" fill="currentColor"/>
</clipPath>
</defs>
</symbol><symbol id="check" viewBox="0 0 24 24" xmlns="http://www.w3.org/2000/svg"><path d="M7.8,21.425A2.542,2.542,0,0,1,6,20.679L.439,15.121,2.561,13,7.8,18.239,21.439,4.6l2.122,2.121L9.6,20.679A2.542,2.542,0,0,1,7.8,21.425Z"/></symbol><symbol viewBox="0 0 512 512" fill="none" id="close" xmlns="http://www.w3.org/2000/svg">
<g clip-path="url(#eclip0_1644_66)">
<path d="M7.2 1.99999C2.6 4.79999 0 9.59999 0 15.3C0 18 0.5 21.1 1.1 22.3C1.7 23.5 54.2 76.6 117.9 140.2L233.5 256L117.9 371.7C54.2 435.4 1.7 488.5 1.1 489.7C0.5 490.9 0 494 0 496.7C0 505.7 6.3 512 15.3 512C18 512 21.1 511.5 22.3 510.9C23.5 510.3 76.6 457.8 140.3 394.1L256 278.5L371.8 394.1C435.4 457.8 488.5 510.3 489.7 510.9C490.9 511.5 494 512 496.7 512C505.7 512 512 505.7 512 496.7C512 494 511.5 490.9 510.9 489.7C510.3 488.5 457.8 435.4 394.1 371.7L278.5 256L394.1 140.2C457.8 76.6 510.3 23.5 510.9 22.3C511.5 21.1 512 18 512 15.3C512 6.29999 505.7 -7.62939e-06 496.7 -7.62939e-06C494 -7.62939e-06 490.9 0.499992 489.7 1.09999C488.5 1.69999 435.4 54.2 371.8 117.9L256 233.5L140.3 117.9C76.6 54.2 23.5 1.69999 22.3 1.09999C18.8 -0.700008 10.9 -0.200008 7.2 1.99999Z" fill="currentColor"/>
</g>
<defs>
<clipPath id="eclip0_1644_66">
<rect width="512" height="512" fill="currentColor"/>
</clipPath>
</defs>
</symbol><symbol viewBox="0 0 35 35" fill="none" id="copy" xmlns="http://www.w3.org/2000/svg">
<g clip-path="url(#fclip0_9_317)">
<path d="M21.875 29.1667H7.29167C5.35851 29.1644 3.50519 28.3954 2.13824 27.0284C0.771286 25.6615 0.00231563 23.8082 0 21.875L0 7.29167C0.00231563 5.35851 0.771286 3.50519 2.13824 2.13824C3.50519 0.771286 5.35851 0.00231563 7.29167 0L21.875 0C23.8082 0.00231563 25.6615 0.771286 27.0284 2.13824C28.3954 3.50519 29.1644 5.35851 29.1667 7.29167V21.875C29.1644 23.8082 28.3954 25.6615 27.0284 27.0284C25.6615 28.3954 23.8082 29.1644 21.875 29.1667ZM7.29167 2.91667C6.13134 2.91667 5.01855 3.3776 4.19807 4.19807C3.3776 5.01855 2.91667 6.13134 2.91667 7.29167V21.875C2.91667 23.0353 3.3776 24.1481 4.19807 24.9686C5.01855 25.7891 6.13134 26.25 7.29167 26.25H21.875C23.0353 26.25 24.1481 25.7891 24.9686 24.9686C25.7891 24.1481 26.25 23.0353 26.25 21.875V7.29167C26.25 6.13134 25.7891 5.01855 24.9686 4.19807C24.1481 3.3776 23.0353 2.91667 21.875 2.91667H7.29167ZM35 27.7083V8.75C35 8.36323 34.8464 7.99229 34.5729 7.7188C34.2994 7.44531 33.9284 7.29167 33.5417 7.29167C33.1549 7.29167 32.784 7.44531 32.5105 7.7188C32.237 7.99229 32.0833 8.36323 32.0833 8.75V27.7083C32.0833 28.8687 31.6224 29.9815 30.8019 30.8019C29.9815 31.6224 28.8687 32.0833 27.7083 32.0833H8.75C8.36323 32.0833 7.99229 32.237 7.7188 32.5105C7.44531 32.784 7.29167 33.1549 7.29167 33.5417C7.29167 33.9284 7.44531 34.2994 7.7188 34.5729C7.99229 34.8464 8.36323 35 8.75 35H27.7083C29.6415 34.9977 31.4948 34.2287 32.8618 32.8618C34.2287 31.4948 34.9977 29.6415 35 27.7083Z" fill="currentColor"/>
</g>
<defs>
<clipPath id="fclip0_9_317">
<rect width="35" height="35" fill="currentColor"/>
</clipPath>
</defs>
</symbol><symbol viewBox="0 0 35 35" fill="none" id="dropdown" xmlns="http://www.w3.org/2000/svg">
<path d="M32.0833 20.4167C32.0833 21.2217 31.4315 21.875 30.625 21.875H13.125C12.32 21.875 11.6667 21.2217 11.6667 20.4167C11.6667 19.6117 12.32 18.9583 13.125 18.9583H30.625C31.4315 18.9583 32.0833 19.6117 32.0833 20.4167ZM7.29167 17.5H4.375C3.57 17.5 2.91667 18.1533 2.91667 18.9583V21.875C2.91667 22.68 3.57 23.3333 4.375 23.3333H7.29167C8.09667 23.3333 8.75 22.68 8.75 21.875V18.9583C8.75 18.1533 8.09667 17.5 7.29167 17.5ZM30.625 27.7083H13.125C12.32 27.7083 11.6667 28.3617 11.6667 29.1667C11.6667 29.9717 12.32 30.625 13.125 30.625H30.625C31.4315 30.625 32.0833 29.9717 32.0833 29.1667C32.0833 28.3617 31.4315 27.7083 30.625 27.7083ZM7.29167 26.25H4.375C3.57 26.25 2.91667 26.9033 2.91667 27.7083V30.625C2.91667 31.43 3.57 32.0833 4.375 32.0833H7.29167C8.09667 32.0833 8.75 31.43 8.75 30.625V27.7083C8.75 26.9033 8.09667 26.25 7.29167 26.25ZM35 5.83333V8.75C35 11.9671 32.3838 14.5833 29.1667 14.5833H5.83333C2.61625 14.5833 0 11.9671 0 8.75V5.83333C0 2.61625 2.61625 0 5.83333 0H29.1667C32.3838 0 35 2.61625 35 5.83333ZM32.0833 5.83333C32.0833 4.22479 30.7752 2.91667 29.1667 2.91667H5.83333C4.22479 2.91667 2.91667 4.22479 2.91667 5.83333V8.75C2.91667 10.3585 4.22479 11.6667 5.83333 11.6667H29.1667C30.7752 11.6667 32.0833 10.3585 32.0833 8.75V5.83333ZM27.8746 5.10417H21.6665C20.65 5.10417 20.1454 6.33792 20.8702 7.04958L23.5798 9.71104C24.2433 10.3746 25.2963 10.3746 25.9598 9.71104L28.6694 7.04958C29.3956 6.33646 28.8925 5.10417 27.8746 5.10417Z" fill="currentColor"/>
</symbol><symbol viewBox="0 0 55 55" fill="none" id="github" xmlns="http://www.w3.org/2000/svg">
<g clip-path="url(#hclip0_7_183)">
<path d="M27.3937 0C12.2665 0 0 12.6073 0 28.1596C0 40.6014 7.8491 51.1568 18.7335 54.8803C20.1025 55.1409 20.6052 54.2695 20.6052 53.5256C20.6052 52.8543 20.5797 50.6358 20.5681 48.2829C12.9469 49.9863 11.3388 44.9604 11.3388 44.9604C10.0927 41.7055 8.29727 40.8402 8.29727 40.8402C5.81195 39.0924 8.48461 39.1282 8.48461 39.1282C11.2355 39.3269 12.6839 42.0301 12.6839 42.0301C15.1271 46.3352 19.0923 45.0905 20.6555 44.3712C20.9013 42.5509 21.6113 41.3088 22.3947 40.6056C16.3103 39.8934 9.91397 37.4788 9.91397 26.6889C9.91397 23.6147 10.9841 21.1025 12.7366 19.1305C12.4521 18.4212 11.5146 15.5572 13.0019 11.6784C13.0019 11.6784 15.3022 10.9215 20.5371 14.5649C22.7221 13.9408 25.0656 13.628 27.3937 13.6174C29.7217 13.628 32.0669 13.9408 34.2562 14.5649C39.4848 10.9215 41.782 11.6784 41.782 11.6784C43.273 15.5572 42.335 18.4212 42.0505 19.1305C43.8069 21.1025 44.8697 23.6145 44.8697 26.6889C44.8697 37.5045 38.4613 39.8861 32.3615 40.5831C33.344 41.457 34.2195 43.1708 34.2195 45.7978C34.2195 49.5656 34.1877 52.5981 34.1877 53.5256C34.1877 54.275 34.6807 55.1531 36.0695 54.8766C46.9479 51.1488 54.7871 40.5973 54.7871 28.1596C54.7871 12.6073 42.5223 0 27.3937 0Z" fill="currentColor"/>
<path d="M10.2599 40.114C10.1997 40.2538 9.98532 40.2958 9.79045 40.1999C9.59172 40.1081 9.48 39.9172 9.54446 39.7768C9.60354 39.6328 9.81795 39.5926 10.0163 39.6893C10.2154 39.781 10.3289 39.9736 10.2599 40.114ZM11.6074 41.3499C11.4768 41.4745 11.2213 41.4166 11.0479 41.2198C10.8688 41.0235 10.8352 40.7611 10.9678 40.6346C11.1025 40.5102 11.3502 40.5683 11.5298 40.7649C11.709 40.9634 11.7438 41.2242 11.6072 41.3501M12.5319 42.9312C12.3639 43.0511 12.0893 42.9387 11.9198 42.6883C11.752 42.438 11.752 42.1377 11.9234 42.0173C12.0936 41.8969 12.3639 42.0052 12.5357 42.2536C12.7033 42.5083 12.7033 42.8086 12.5316 42.9314M14.0951 44.7627C13.9449 44.9328 13.6252 44.8873 13.391 44.6549C13.1517 44.4279 13.0849 44.1057 13.2355 43.9354C13.3874 43.7649 13.709 43.8128 13.9449 44.0432C14.1827 44.2698 14.2551 44.5944 14.0951 44.7627ZM16.1155 45.3811C16.0495 45.6015 15.7414 45.7018 15.4312 45.6081C15.1214 45.5116 14.9186 45.2532 14.9811 45.0304C15.0455 44.8084 15.3549 44.704 15.6675 44.8042C15.9769 44.9003 16.1799 45.1567 16.1155 45.3811ZM18.4151 45.6432C18.4229 45.8756 18.1597 46.0682 17.834 46.0724C17.5064 46.0796 17.2414 45.8917 17.238 45.6633C17.238 45.4288 17.4952 45.238 17.8226 45.2325C18.1483 45.2258 18.4151 45.4125 18.4151 45.6432ZM20.674 45.5542C20.7131 45.7808 20.4867 46.0136 20.1633 46.0754C19.8454 46.1351 19.551 45.9953 19.5104 45.7707C19.4709 45.5383 19.7016 45.3058 20.0189 45.2455C20.3429 45.1876 20.6328 45.3239 20.674 45.5542Z" fill="currentColor"/>
</g>
<defs>
<clipPath id="hclip0_7_183">
<rect width="55" height="55" fill="currentColor"/>
</clipPath>
</defs>
</symbol><symbol viewBox="0 0 35 35" fill="none" id="horizontalMenu" xmlns="http://www.w3.org/2000/svg">
<g clip-path="url(#iclip0_7_131)">
<mask id="imask0_7_131" maskUnits="userSpaceOnUse" x="0" y="0" width="35" height="35">
<path d="M35 35V0L0 0V35H35Z" fill="currentColor"/>
</mask>
<g mask="url(#imask0_7_131)">
<path d="M35 10.2083V5.83333C35 4.28624 34.3854 2.80251 33.2915 1.70854C32.1975 0.614582 30.7138 2.58863e-07 29.1667 1.91237e-07L24.7917 0C23.2446 -6.7626e-08 21.7608 0.614581 20.6669 1.70854C19.5729 2.80251 18.9583 4.28624 18.9583 5.83333V10.2083C18.9583 11.7554 19.5729 13.2392 20.6669 14.3331C21.7608 15.4271 23.2446 16.0417 24.7917 16.0417H29.1667C30.7138 16.0417 32.1975 15.4271 33.2915 14.3331C34.3854 13.2392 35 11.7554 35 10.2083ZM24.7917 13.125C24.0181 13.125 23.2763 12.8177 22.7293 12.2707C22.1823 11.7237 21.875 10.9819 21.875 10.2083V5.83333C21.875 5.05979 22.1823 4.31792 22.7293 3.77094C23.2763 3.22396 24.0181 2.91667 24.7917 2.91667H29.1667C29.9402 2.91667 30.6821 3.22396 31.2291 3.77094C31.776 4.31792 32.0833 5.05979 32.0833 5.83333V10.2083C32.0833 10.9819 31.776 11.7237 31.2291 12.2707C30.6821 12.8177 29.9402 13.125 29.1667 13.125H24.7917Z" fill="currentColor"/>
<path d="M16.0417 10.2083V5.83333C16.0417 4.28624 15.4271 2.80251 14.3331 1.70854C13.2392 0.614582 11.7554 2.58863e-07 10.2083 1.91237e-07L5.83333 0C4.28624 -6.7626e-08 2.80251 0.614581 1.70854 1.70854C0.614583 2.80251 2.58799e-07 4.28624 1.91199e-07 5.83333L0 10.2083C-6.77e-08 11.7554 0.614582 13.2392 1.70854 14.3331C2.8025 15.4271 4.28623 16.0417 5.83333 16.0417H10.2083C11.7554 16.0417 13.2391 15.4271 14.3331 14.3331C15.4271 13.2392 16.0417 11.7554 16.0417 10.2083ZM5.83333 13.125C5.05978 13.125 4.31792 12.8177 3.77094 12.2707C3.22396 11.7237 2.91666 10.9819 2.91666 10.2083V5.83333C2.91666 5.05979 3.22396 4.31792 3.77094 3.77094C4.31792 3.22396 5.05978 2.91667 5.83333 2.91667H10.2083C10.9819 2.91667 11.7237 3.22396 12.2707 3.77094C12.8177 4.31792 13.125 5.05979 13.125 5.83333V10.2083C13.125 10.9819 12.8177 11.7237 12.2707 12.2707C11.7237 12.8177 10.9819 13.125 10.2083 13.125H5.83333Z" fill="currentColor"/>
<path d="M7.22019 32.5106L3.88061 29.1667H31.1602L27.8206 32.5106C27.6852 32.6461 27.5778 32.807 27.5046 32.984C27.4313 33.161 27.3937 33.3506 27.3938 33.5422C27.3938 33.7337 27.4316 33.9234 27.505 34.1003C27.5783 34.2773 27.6858 34.438 27.8213 34.5734C27.9568 34.7088 28.1177 34.8162 28.2947 34.8895C28.4717 34.9627 28.6613 35.0004 28.8529 35.0003C29.0444 35.0002 29.2341 34.9624 29.4111 34.8891C29.588 34.8157 29.7488 34.7082 29.8842 34.5727L33.651 30.8C34.4703 29.9797 34.9305 28.8677 34.9305 27.7083C34.9305 26.549 34.4703 25.437 33.651 24.6167L29.8842 20.844C29.7488 20.7085 29.588 20.601 29.4111 20.5276C29.2341 20.4542 29.0444 20.4164 28.8529 20.4164C28.6613 20.4163 28.4717 20.454 28.2947 20.5272C28.1177 20.6005 27.9568 20.7078 27.8213 20.8432C27.6858 20.9786 27.5783 21.1394 27.505 21.3163C27.4316 21.4933 27.3938 21.6829 27.3938 21.8745C27.3937 22.066 27.4313 22.2557 27.5046 22.4327C27.5778 22.6097 27.6852 22.7706 27.8206 22.9061L31.1602 26.25H3.88061L7.22019 22.9061C7.35559 22.7706 7.46298 22.6097 7.53622 22.4327C7.60946 22.2557 7.64712 22.066 7.64705 21.8745C7.64698 21.6829 7.60919 21.4933 7.53582 21.3163C7.46246 21.1394 7.35496 20.9786 7.21947 20.8432C7.08397 20.7078 6.92314 20.6005 6.74614 20.5272C6.56915 20.454 6.37946 20.4163 6.18791 20.4164C5.99636 20.4164 5.8067 20.4542 5.62975 20.5276C5.45281 20.601 5.29205 20.7085 5.15665 20.844L1.38978 24.6167C0.570479 25.437 0.110291 26.549 0.110291 27.7083C0.110291 28.8677 0.570479 29.9797 1.38978 30.8L5.15665 34.5727C5.29205 34.7082 5.45281 34.8157 5.62975 34.8891C5.8067 34.9624 5.99636 35.0002 6.18791 35.0003C6.37946 35.0004 6.56914 34.9627 6.74614 34.8895C6.92313 34.8162 7.08397 34.7088 7.21946 34.5734C7.35496 34.438 7.46246 34.2773 7.53582 34.1003C7.60919 33.9234 7.64698 33.7337 7.64705 33.5422C7.64712 33.3506 7.60946 33.161 7.53622 32.984C7.46298 32.807 7.35559 32.6461 7.22019 32.5106Z" fill="currentColor"/>
</g>
</g>
<defs>
<clipPath id="iclip0_7_131">
<rect width="35" height="35" fill="currentColor"/>
</clipPath>
</defs>
</symbol><symbol viewBox="0 0 20 20" fill="none" id="menu" xmlns="http://www.w3.org/2000/svg">
<path d="M19.1304 9.13043H0.869551C0.389307 9.13043 0 9.51974 0 9.99998C0 10.4802 0.389307 10.8695 0.869551 10.8695H19.1304C19.6107 10.8695 20 10.4802 20 9.99998C20 9.51974 19.6107 9.13043 19.1304 9.13043Z" fill="currentColor"/>
<path d="M0.869551 4.78262H19.1304C19.6107 4.78262 20 4.39331 20 3.91307C20 3.43282 19.6107 3.04352 19.1304 3.04352H0.869551C0.389307 3.04352 0 3.43282 0 3.91307C0 4.39331 0.389307 4.78262 0.869551 4.78262Z" fill="currentColor"/>
<path d="M19.1304 15.2174H0.869551C0.389307 15.2174 0 15.6068 0 16.087C0 16.5672 0.389307 16.9565 0.869551 16.9565H19.1304C19.6107 16.9565 20 16.5672 20 16.087C20 15.6068 19.6107 15.2174 19.1304 15.2174Z" fill="currentColor"/>
</symbol><symbol viewBox="0 0 35 35" fill="none" id="mixins" xmlns="http://www.w3.org/2000/svg">
<g clip-path="url(#kclip0_71_350)">
<path d="M23.3334 8.75C23.7201 8.75 24.0911 8.90365 24.3646 9.17714C24.638 9.45063 24.7917 9.82156 24.7917 10.2083C24.7917 10.5951 24.638 10.966 24.3646 11.2395C24.0911 11.513 23.7201 11.6667 23.3334 11.6667H11.6667C11.2799 11.6667 10.909 11.513 10.6355 11.2395C10.362 10.966 10.2084 10.5951 10.2084 10.2083C10.2084 9.82156 10.362 9.45063 10.6355 9.17714C10.909 8.90365 11.2799 8.75 11.6667 8.75H23.3334ZM34.5727 34.5727C34.2993 34.8461 33.9284 34.9997 33.5417 34.9997C33.155 34.9997 32.7841 34.8461 32.5106 34.5727L29.0004 31.0625C27.9609 31.726 26.7541 32.08 25.5209 32.0833C24.2229 32.0833 22.9541 31.6985 21.8749 30.9774C20.7957 30.2563 19.9546 29.2313 19.4579 28.0322C18.9612 26.8331 18.8312 25.5136 19.0844 24.2406C19.3377 22.9676 19.9627 21.7982 20.8805 20.8804C21.7982 19.9627 22.9676 19.3376 24.2406 19.0844C25.5136 18.8312 26.8331 18.9612 28.0322 19.4579C29.2314 19.9546 30.2563 20.7957 30.9774 21.8749C31.6985 22.9541 32.0834 24.2229 32.0834 25.5208C32.0801 26.7541 31.726 27.9609 31.0625 29.0004L34.5727 32.5106C34.8461 32.7841 34.9997 33.155 34.9997 33.5417C34.9997 33.9284 34.8461 34.2992 34.5727 34.5727ZM25.5209 29.1667C26.2419 29.1667 26.9468 28.9528 27.5464 28.5522C28.1459 28.1516 28.6132 27.5822 28.8892 26.916C29.1651 26.2498 29.2373 25.5168 29.0966 24.8096C28.956 24.1023 28.6087 23.4527 28.0988 22.9428C27.589 22.433 26.9393 22.0857 26.2321 21.9451C25.5249 21.8044 24.7918 21.8766 24.1257 22.1525C23.4595 22.4285 22.8901 22.8958 22.4895 23.4953C22.0888 24.0949 21.875 24.7998 21.875 25.5208C21.875 26.4878 22.2591 27.4151 22.9429 28.0988C23.6266 28.7826 24.5539 29.1667 25.5209 29.1667ZM18.9584 32.0833H10.2084C9.04803 32.0833 7.93523 31.6224 7.11476 30.8019C6.29429 29.9815 5.83335 28.8687 5.83335 27.7083V7.29167C5.83335 6.13134 6.29429 5.01855 7.11476 4.19807C7.93523 3.3776 9.04803 2.91667 10.2084 2.91667H27.7084C28.0951 2.91667 28.4661 3.07031 28.7396 3.3438C29.013 3.61729 29.1667 3.98823 29.1667 4.375V16.0417C29.1667 16.4284 29.3203 16.7994 29.5938 17.0729C29.8673 17.3464 30.2382 17.5 30.625 17.5C31.0118 17.5 31.3827 17.3464 31.6562 17.0729C31.9297 16.7994 32.0834 16.4284 32.0834 16.0417V4.375C32.0834 3.21468 31.6224 2.10188 30.8019 1.28141C29.9815 0.460936 28.8687 0 27.7084 0L10.2084 0C8.27519 0.00231563 6.42188 0.771286 5.05492 2.13824C3.68797 3.50519 2.919 5.35851 2.91669 7.29167V27.7083C2.919 29.6415 3.68797 31.4948 5.05492 32.8618C6.42188 34.2287 8.27519 34.9977 10.2084 35H18.9584C19.3451 35 19.7161 34.8464 19.9896 34.5729C20.263 34.2994 20.4167 33.9284 20.4167 33.5417C20.4167 33.1549 20.263 32.784 19.9896 32.5105C19.7161 32.237 19.3451 32.0833 18.9584 32.0833Z" fill="currentColor"/>
</g>
<defs>
<clipPath id="kclip0_71_350">
<rect width="35" height="35" fill="currentColor"/>
</clipPath>
</defs>
</symbol><symbol viewBox="0 0 35 35" fill="none" id="openMenu" xmlns="http://www.w3.org/2000/svg">
<g clip-path="url(#lclip0_73_247)">
<path d="M0 4.375V16.0417H16.0417V0H4.375C3.21468 0 2.10188 0.460936 1.28141 1.28141C0.460936 2.10188 0 3.21468 0 4.375ZM13.125 13.125H2.91667V4.375C2.91667 3.98823 3.07031 3.61729 3.3438 3.3438C3.61729 3.07031 3.98823 2.91667 4.375 2.91667H13.125V13.125Z" fill="currentColor"/>
<path d="M0 30.625C0 31.7853 0.460936 32.8981 1.28141 33.7186C2.10188 34.5391 3.21468 35 4.375 35H16.0417V18.9583H0V30.625ZM2.91667 21.875H13.125V32.0833H4.375C3.98823 32.0833 3.61729 31.9297 3.3438 31.6562C3.07031 31.3827 2.91667 31.0118 2.91667 30.625V21.875Z" fill="currentColor"/>
<path d="M18.9583 18.9583V35H30.625C31.7853 35 32.8981 34.5391 33.7186 33.7186C34.539 32.8981 35 31.7853 35 30.625V18.9583H18.9583ZM32.0833 30.625C32.0833 31.0118 31.9297 31.3827 31.6562 31.6562C31.3827 31.9297 31.0118 32.0833 30.625 32.0833H21.875V21.875H32.0833V30.625Z" fill="currentColor"/>
<path d="M24.7916 16.0417H27.7083V10.2083H33.5416V7.29168H27.7083V1.45834H24.7916V7.29168H18.9583V10.2083H24.7916V16.0417Z" fill="currentColor"/>
</g>
<defs>
<clipPath id="lclip0_73_247">
<rect width="35" height="35" fill="currentColor"/>
</clipPath>
</defs>
</symbol><symbol viewBox="0 0 35 35" fill="none" id="phone" xmlns="http://www.w3.org/2000/svg">
<g clip-path="url(#mclip0_6_182)">
<path d="M18.9584 1.45834C18.9584 1.07157 19.112 0.700636 19.3855 0.427146C19.659 0.153655 20.0299 9.57539e-06 20.4167 9.57539e-06C24.2831 0.00425565 27.99 1.54207 30.724 4.27606C33.458 7.01004 34.9958 10.7169 35 14.5833C35 14.9701 34.8464 15.3411 34.5729 15.6145C34.2994 15.888 33.9285 16.0417 33.5417 16.0417C33.1549 16.0417 32.784 15.888 32.5105 15.6145C32.237 15.3411 32.0834 14.9701 32.0834 14.5833C32.0799 11.4902 30.8496 8.52477 28.6624 6.3376C26.4753 4.15043 23.5098 2.92015 20.4167 2.91668C20.0299 2.91668 19.659 2.76303 19.3855 2.48954C19.112 2.21605 18.9584 1.84512 18.9584 1.45834ZM20.4167 8.75001C21.9638 8.75001 23.4475 9.36459 24.5415 10.4586C25.6354 11.5525 26.25 13.0362 26.25 14.5833C26.25 14.9701 26.4037 15.3411 26.6772 15.6145C26.9506 15.888 27.3216 16.0417 27.7084 16.0417C28.0951 16.0417 28.4661 15.888 28.7396 15.6145C29.013 15.3411 29.1667 14.9701 29.1667 14.5833C29.1644 12.2634 28.2418 10.0392 26.6013 8.39872C24.9609 6.75828 22.7366 5.83566 20.4167 5.83334C20.0299 5.83334 19.659 5.98699 19.3855 6.26048C19.112 6.53397 18.9584 6.9049 18.9584 7.29168C18.9584 7.67845 19.112 8.04938 19.3855 8.32287C19.659 8.59636 20.0299 8.75001 20.4167 8.75001ZM33.6773 24.4111C34.5224 25.2585 34.997 26.4065 34.997 27.6033C34.997 28.8002 34.5224 29.9482 33.6773 30.7956L32.3502 32.3254C20.4065 43.7602 -8.6581 14.7029 2.60023 2.72126L4.27731 1.26293C5.12572 0.441414 6.26346 -0.0130439 7.44438 -0.00212711C8.6253 0.00878962 9.75444 0.484203 10.5875 1.32126C10.6327 1.36647 13.335 4.87668 13.335 4.87668C14.1369 5.71905 14.5832 6.83803 14.5813 8.00101C14.5794 9.164 14.1294 10.2815 13.3248 11.1213L11.6361 13.2446C12.5706 15.5154 13.9447 17.5791 15.6793 19.3172C17.4139 21.0553 19.4749 22.4336 21.7438 23.3727L23.8802 21.6738C24.7201 20.8698 25.8374 20.4203 27 20.4187C28.1627 20.4171 29.2812 20.8634 30.1234 21.665C30.1234 21.665 33.6321 24.3658 33.6773 24.4111ZM31.6706 26.5315C31.6706 26.5315 28.1809 23.8467 28.1356 23.8015C27.8352 23.5036 27.4293 23.3364 27.0062 23.3364C26.5831 23.3364 26.1771 23.5036 25.8767 23.8015C25.8373 23.8423 22.8959 26.1858 22.8959 26.1858C22.6976 26.3436 22.4617 26.447 22.2114 26.4859C21.961 26.5248 21.7049 26.4978 21.4681 26.4075C18.5288 25.3131 15.859 23.5998 13.6396 21.3837C11.4201 19.1675 9.7029 16.5002 8.60419 13.5625C8.50677 13.3225 8.47501 13.061 8.51217 12.8047C8.54933 12.5484 8.65408 12.3066 8.81565 12.1042C8.81565 12.1042 11.1592 9.16126 11.1986 9.12334C11.4965 8.82291 11.6636 8.41695 11.6636 7.99386C11.6636 7.57078 11.4965 7.16482 11.1986 6.86438C11.1534 6.82063 8.46856 3.32793 8.46856 3.32793C8.16362 3.0545 7.76565 2.90807 7.35621 2.91864C6.94678 2.92922 6.55689 3.096 6.26648 3.3848L4.5894 4.84313C-3.63852 14.7365 21.5484 38.5263 30.2181 30.3333L31.5467 28.8021C31.858 28.5137 32.045 28.1156 32.0681 27.6919C32.0913 27.2681 31.9487 26.852 31.6706 26.5315Z" fill="currentColor"/>
</g>
<defs>
<clipPath id="mclip0_6_182">
<rect width="35" height="35" fill="currentColor"/>
</clipPath>
</defs>
</symbol><symbol viewBox="0 0 35 35" fill="none" id="plan" xmlns="http://www.w3.org/2000/svg">
<g clip-path="url(#nclip0_71_338)">
<path d="M25.0294 18.9583C25.6623 21.0598 27.5917 22.6042 29.8958 22.6042C32.7104 22.6042 35 20.3146 35 17.5C35 14.6854 32.7104 12.3958 29.8958 12.3958C27.5917 12.3958 25.6623 13.9402 25.0294 16.0417H23.3333V7.29167C23.3333 6.89062 23.6615 6.5625 24.0625 6.5625H25.0294C25.6623 8.66396 27.5917 10.2083 29.8958 10.2083C32.7104 10.2083 35 7.91875 35 5.10417C35 2.28958 32.7104 0 29.8958 0C27.5917 0 25.6623 1.54438 25.0294 3.64583H24.0625C22.0515 3.64583 20.4167 5.28063 20.4167 7.29167V16.0417H17.5V18.9583H20.4167V27.7083C20.4167 29.7194 22.0515 31.3542 24.0625 31.3542H25.0294C25.6623 33.4556 27.5917 35 29.8958 35C32.7104 35 35 32.7104 35 29.8958C35 27.0813 32.7104 24.7917 29.8958 24.7917C27.5917 24.7917 25.6623 26.336 25.0294 28.4375H24.0625C23.6615 28.4375 23.3333 28.1094 23.3333 27.7083V18.9583H25.0294ZM29.8958 15.3125C31.1019 15.3125 32.0833 16.294 32.0833 17.5C32.0833 18.706 31.1019 19.6875 29.8958 19.6875C28.6898 19.6875 27.7083 18.706 27.7083 17.5C27.7083 16.294 28.6898 15.3125 29.8958 15.3125ZM29.8958 2.91667C31.1019 2.91667 32.0833 3.89813 32.0833 5.10417C32.0833 6.31021 31.1019 7.29167 29.8958 7.29167C28.6898 7.29167 27.7083 6.31021 27.7083 5.10417C27.7083 3.89813 28.6898 2.91667 29.8958 2.91667ZM29.8958 27.7083C31.1019 27.7083 32.0833 28.6898 32.0833 29.8958C32.0833 31.1019 31.1019 32.0833 29.8958 32.0833C28.6898 32.0833 27.7083 31.1019 27.7083 29.8958C27.7083 28.6898 28.6898 27.7083 29.8958 27.7083ZM15.6042 11.8694L13.5465 13.055C12.6642 12.1042 11.515 11.4129 10.2069 11.114V8.75H7.29021V11.114C5.98354 11.4129 4.83292 12.1042 3.95062 13.055L1.89292 11.8694L0.4375 14.3952L2.5025 15.5852C2.31437 16.1948 2.18458 16.8292 2.18458 17.5C2.18458 18.1708 2.31437 18.8052 2.5025 19.4148L0.4375 20.6048L1.89292 23.1306L3.95062 21.945C4.83292 22.8958 5.98208 23.5871 7.29021 23.886V26.25H10.2069V23.886C11.5135 23.5871 12.6642 22.8958 13.5465 21.945L15.6042 23.1306L17.0596 20.6048L14.9946 19.4148C15.1827 18.8052 15.3125 18.1708 15.3125 17.5C15.3125 16.8292 15.1827 16.1948 14.9946 15.5852L17.0596 14.3952L15.6042 11.8694ZM8.75 21.1458C6.73896 21.1458 5.10417 19.511 5.10417 17.5C5.10417 15.489 6.73896 13.8542 8.75 13.8542C10.761 13.8542 12.3958 15.489 12.3958 17.5C12.3958 19.511 10.761 21.1458 8.75 21.1458Z" fill="currentColor"/>
</g>
<defs>
<clipPath id="nclip0_71_338">
<rect width="35" height="35" fill="currentColor"/>
</clipPath>
</defs>
</symbol><symbol viewBox="0 0 35 35" fill="none" id="popup" xmlns="http://www.w3.org/2000/svg">
<g clip-path="url(#oclip0_6_112)">
<path d="M27.7083 1.45834H7.29167C3.26667 1.45834 0 4.72501 0 8.75001V26.25C0 30.275 3.26667 33.5417 7.29167 33.5417H27.7083C31.7333 33.5417 35 30.275 35 26.25V8.75001C35 4.72501 31.7333 1.45834 27.7083 1.45834ZM7.29167 4.37501H27.7083C30.1146 4.37501 32.0833 6.34376 32.0833 8.75001V11.6667H2.91667V8.75001C2.91667 6.34376 4.88542 4.37501 7.29167 4.37501ZM27.7083 30.625H7.29167C4.88542 30.625 2.91667 28.6563 2.91667 26.25V14.5833H32.0833V26.25C32.0833 28.6563 30.1146 30.625 27.7083 30.625Z" fill="currentColor"/>
</g>
<defs>
<clipPath id="oclip0_6_112">
<rect width="35" height="35" fill="currentColor"/>
</clipPath>
</defs>
</symbol><symbol viewBox="0 0 35 35" fill="none" id="preloader" xmlns="http://www.w3.org/2000/svg">
<g clip-path="url(#pclip0_6_36)">
<path d="M18.9583 1.45833V4.375C18.9583 4.76177 18.8047 5.13271 18.5312 5.4062C18.2577 5.67969 17.8868 5.83333 17.5 5.83333C17.1132 5.83333 16.7423 5.67969 16.4688 5.4062C16.1953 5.13271 16.0417 4.76177 16.0417 4.375V1.45833C16.0417 1.07156 16.1953 0.700627 16.4688 0.427136C16.7423 0.153645 17.1132 0 17.5 0C17.8868 0 18.2577 0.153645 18.5312 0.427136C18.8047 0.700627 18.9583 1.07156 18.9583 1.45833ZM17.5 29.1667C17.1132 29.1667 16.7423 29.3203 16.4688 29.5938C16.1953 29.8673 16.0417 30.2382 16.0417 30.625V33.5417C16.0417 33.9284 16.1953 34.2994 16.4688 34.5729C16.7423 34.8464 17.1132 35 17.5 35C17.8868 35 18.2577 34.8464 18.5312 34.5729C18.8047 34.2994 18.9583 33.9284 18.9583 33.5417V30.625C18.9583 30.2382 18.8047 29.8673 18.5312 29.5938C18.2577 29.3203 17.8868 29.1667 17.5 29.1667ZM5.83333 17.5C5.83333 17.1132 5.67969 16.7423 5.4062 16.4688C5.13271 16.1953 4.76177 16.0417 4.375 16.0417H1.45833C1.07156 16.0417 0.700627 16.1953 0.427136 16.4688C0.153645 16.7423 0 17.1132 0 17.5C0 17.8868 0.153645 18.2577 0.427136 18.5312C0.700627 18.8047 1.07156 18.9583 1.45833 18.9583H4.375C4.76177 18.9583 5.13271 18.8047 5.4062 18.5312C5.67969 18.2577 5.83333 17.8868 5.83333 17.5ZM33.5417 16.0417H30.625C30.2382 16.0417 29.8673 16.1953 29.5938 16.4688C29.3203 16.7423 29.1667 17.1132 29.1667 17.5C29.1667 17.8868 29.3203 18.2577 29.5938 18.5312C29.8673 18.8047 30.2382 18.9583 30.625 18.9583H33.5417C33.9284 18.9583 34.2994 18.8047 34.5729 18.5312C34.8464 18.2577 35 17.8868 35 17.5C35 17.1132 34.8464 16.7423 34.5729 16.4688C34.2994 16.1953 33.9284 16.0417 33.5417 16.0417ZM26.2763 2.35958C26.1105 2.26348 25.9275 2.20098 25.7376 2.17565C25.5477 2.15032 25.3546 2.16265 25.1695 2.21195C24.9844 2.26125 24.8108 2.34654 24.6586 2.46295C24.5064 2.57937 24.3787 2.72462 24.2827 2.89042L22.8244 5.41479C22.6309 5.74956 22.5782 6.14748 22.6781 6.52104C22.7779 6.89461 23.022 7.21324 23.3567 7.40688C23.5779 7.53624 23.8296 7.6042 24.0858 7.60375C24.3418 7.60374 24.5933 7.53636 24.815 7.40836C25.0367 7.28037 25.2208 7.09627 25.3488 6.87458L26.8071 4.35021C27.0002 4.01575 27.0528 3.61832 26.9533 3.24512C26.8538 2.87193 26.6103 2.55346 26.2763 2.35958ZM11.6477 27.5931C11.3131 27.3995 10.9153 27.3467 10.5418 27.4462C10.1682 27.5457 9.84951 27.7895 9.65563 28.124L8.19729 30.6483C8.00367 30.9829 7.95082 31.3807 8.05036 31.7543C8.1499 32.1278 8.39368 32.4465 8.72813 32.6404C8.94938 32.7696 9.20106 32.8376 9.45729 32.8373C9.71352 32.8375 9.9653 32.7703 10.1873 32.6423C10.4092 32.5143 10.5936 32.33 10.7217 32.1081L12.18 29.5837C12.373 29.2491 12.4254 28.8515 12.3256 28.4783C12.2258 28.1051 11.982 27.7868 11.6477 27.5931ZM6.87604 9.65563L4.35167 8.19729C4.01779 8.01762 3.62705 7.97504 3.26231 8.07859C2.89757 8.18214 2.58749 8.42367 2.39783 8.75198C2.20816 9.08029 2.15382 9.46957 2.24632 9.83727C2.33882 10.205 2.57089 10.5222 2.89333 10.7217L5.41771 12.18C5.75159 12.3597 6.14232 12.4023 6.50707 12.2987C6.87181 12.1952 7.18188 11.9536 7.37155 11.6253C7.56121 11.297 7.61556 10.9077 7.52306 10.54C7.43055 10.1723 7.19848 9.85511 6.87604 9.65563ZM32.1052 24.2827L29.5808 22.8244C29.247 22.6447 28.8562 22.6021 28.4915 22.7057C28.1267 22.8092 27.8167 23.0508 27.627 23.3791C27.4373 23.7074 27.383 24.0967 27.4755 24.4644C27.568 24.8321 27.8001 25.1493 28.1225 25.3488L30.6469 26.8071C30.8681 26.9364 31.1198 27.0044 31.376 27.004C31.6971 27.0039 32.0091 26.898 32.2638 26.7026C32.5185 26.5072 32.7015 26.2332 32.7846 25.9231C32.8677 25.613 32.8462 25.2842 32.7233 24.9876C32.6005 24.691 32.3832 24.4432 32.1052 24.2827ZM10.7173 2.89042C10.5178 2.56798 10.2006 2.3359 9.83289 2.2434C9.46519 2.1509 9.07592 2.20524 8.74761 2.39491C8.4193 2.58457 8.17776 2.89465 8.07421 3.25939C7.97066 3.62414 8.01324 4.01487 8.19292 4.34875L9.65125 6.87313C9.77924 7.09481 9.96333 7.27891 10.185 7.4069C10.4067 7.5349 10.6582 7.60228 10.9142 7.60229C11.1704 7.60274 11.4221 7.53478 11.6433 7.40542C11.978 7.21178 12.2221 6.89315 12.3219 6.51958C12.4218 6.14602 12.3691 5.74811 12.1756 5.41333L10.7173 2.89042ZM25.3444 28.1196C25.1449 27.7971 24.8277 27.5651 24.46 27.4726C24.0923 27.3801 23.703 27.4344 23.3747 27.6241C23.0464 27.8137 22.8048 28.1238 22.7013 28.4886C22.5977 28.8533 22.6403 29.244 22.82 29.5779L24.2783 32.1023C24.4778 32.4247 24.795 32.6568 25.1627 32.7493C25.5304 32.8418 25.9197 32.7875 26.248 32.5978C26.5763 32.4081 26.8179 32.0981 26.9214 31.7333C27.025 31.3686 26.9824 30.9778 26.8027 30.644L25.3444 28.1196ZM28.856 12.3696C29.112 12.3696 29.3635 12.3022 29.5852 12.1742L32.1096 10.7158C32.432 10.5164 32.6641 10.1991 32.7566 9.83143C32.8491 9.46373 32.7948 9.07446 32.6051 8.74615C32.4154 8.41784 32.1054 8.17631 31.7406 8.07276C31.3759 7.96921 30.9851 8.01178 30.6513 8.19146L28.1269 9.64979C27.8496 9.81064 27.633 10.0584 27.5107 10.3546C27.3883 10.6509 27.367 10.9793 27.45 11.2889C27.533 11.5985 27.7157 11.8722 27.9699 12.0675C28.2241 12.2628 28.5355 12.369 28.856 12.3696ZM5.41479 22.82L2.89042 24.2783C2.61242 24.4389 2.39515 24.6866 2.27231 24.9832C2.14947 25.2798 2.12792 25.6086 2.21101 25.9187C2.29409 26.2288 2.47717 26.5028 2.73185 26.6982C2.98652 26.8936 3.29857 26.9996 3.61958 26.9996C3.87583 27 4.12755 26.9321 4.34875 26.8027L6.87313 25.3444C7.19557 25.1449 7.42764 24.8277 7.52014 24.46C7.61264 24.0923 7.5583 23.703 7.36863 23.3747C7.17897 23.0464 6.86889 22.8048 6.50415 22.7013C6.13941 22.5977 5.74867 22.6403 5.41479 22.82Z" fill="currentColor"/>
</g>
<defs>
<clipPath id="pclip0_6_36">
<rect width="35" height="35" fill="currentColor"/>
</clipPath>
</defs>
</symbol><symbol viewBox="0 0 35 35" fill="none" id="preloaderImg" xmlns="http://www.w3.org/2000/svg">
<g clip-path="url(#qclip0_7_71)">
<path d="M16.9677 21.8735C16.0635 21.8735 15.1579 21.5308 14.4696 20.841L7.92748 14.4988L9.95894 12.4046L16.5171 18.7615C16.7708 19.0152 17.1573 19.0152 17.4023 18.776L31.7887 4.57333L33.8362 6.65L19.4556 20.8483C18.7717 21.5323 17.8689 21.8735 16.9677 21.8735ZM4.49165 10.9317L1.8754 9.61042C1.05144 11.2423 0.491443 12.9835 0.208527 14.786L3.10915 15.2381C3.34686 13.7098 3.8179 12.2646 4.49165 10.9317ZM10.7742 4.56896L9.42519 1.97313C7.80936 2.81167 6.3379 3.89812 5.05165 5.20188L7.12978 7.25375C8.19144 6.17896 9.42228 5.27479 10.7742 4.57042V4.56896ZM28.3981 3.82229C27.5173 3.11938 26.5781 2.49229 25.5762 1.97313L24.2273 4.56896C24.9594 4.95104 25.6462 5.40021 26.2996 5.89458L28.3981 3.82229ZM31.4023 13.1512C31.6123 13.8279 31.78 14.5235 31.8908 15.2396L34.7914 14.7875C34.5814 13.4444 34.2154 12.1363 33.7021 10.8806L31.4008 13.1527L31.4023 13.1512ZM17.5 2.91667C18.3269 2.91667 19.1333 3.00125 19.9223 3.13396L20.405 0.240625C19.4483 0.0816667 18.4712 0 17.5 0C16.5287 0 15.5517 0.0816667 14.595 0.240625L15.0777 3.13396C15.8667 3.00125 16.6731 2.91667 17.5 2.91667ZM0.209985 20.2198C0.491443 22.0238 1.0529 23.7665 1.87978 25.3969L4.49603 24.0713C3.82228 22.7398 3.35123 21.2931 3.11207 19.7663L0.211443 20.2198H0.209985ZM30.5069 24.0713L33.1231 25.3969C33.9485 23.7665 34.51 22.0252 34.7929 20.2198L31.8923 19.7663C31.6531 21.2931 31.1806 22.7398 30.5069 24.0713ZM24.22 30.434L25.5704 33.0312C27.1862 32.1898 28.6592 31.1048 29.9439 29.804L27.8673 27.7506C26.8041 28.8254 25.5733 29.7296 24.22 30.434ZM17.5 32.0819C16.6731 32.0819 15.8667 31.9973 15.0777 31.8646L14.595 34.7579C15.5517 34.9169 16.5287 34.9985 17.5 34.9985C18.4712 34.9985 19.4483 34.9169 20.405 34.7579L19.9223 31.8646C19.1333 31.9973 18.3269 32.0819 17.5 32.0819ZM5.05603 29.804C6.34082 31.1048 7.81373 32.1898 9.42957 33.0312L10.78 30.434C9.42665 29.7296 8.19436 28.8254 7.13269 27.7506L5.05603 29.804Z" fill="currentColor"/>
</g>
<defs>
<clipPath id="qclip0_7_71">
<rect width="35" height="35" fill="currentColor"/>
</clipPath>
</defs>
</symbol><symbol viewBox="0 0 35 35" fill="none" id="previewer" xmlns="http://www.w3.org/2000/svg">
<g clip-path="url(#rclip0_6_159)">
<path d="M29.0923 8.07333L24.0115 2.98958C22.0821 1.06167 19.5184 0 16.7927 0H10.2084C6.18773 0 2.91669 3.27104 2.91669 7.29167V27.7083C2.91669 31.729 6.18773 35 10.2084 35H24.7917C28.8123 35 32.0834 31.729 32.0834 27.7083V15.2906C32.0834 12.5621 31.0202 10.0013 29.0923 8.07333ZM27.0302 10.1369C27.494 10.5992 27.8863 11.114 28.2042 11.6681H21.8736C21.0686 11.6681 20.4152 11.0133 20.4152 10.2098V3.87771C20.9694 4.19562 21.4842 4.58792 21.9479 5.05167L27.0288 10.1354L27.0302 10.1369ZM29.1667 27.7098C29.1667 30.1219 27.2038 32.0848 24.7917 32.0848H10.2084C7.79627 32.0848 5.83335 30.1219 5.83335 27.7098V7.29167C5.83335 4.87958 7.79627 2.91667 10.2084 2.91667H16.7927C17.0304 2.91667 17.2667 2.92833 17.5 2.95021V10.2083C17.5 12.6204 19.4629 14.5833 21.875 14.5833H29.1331C29.155 14.8167 29.1667 15.0529 29.1667 15.2906V27.7098ZM22.9061 23.4879C23.4763 24.0567 23.4763 24.9798 22.9061 25.55L20.5538 27.9038C19.7123 28.7452 18.6054 29.1667 17.5 29.1667C16.3946 29.1667 15.2877 28.7452 14.4463 27.9038L12.094 25.55C11.5238 24.9798 11.5238 24.0567 12.094 23.4879C12.6642 22.9177 13.5859 22.9177 14.1561 23.4879L16.0417 25.3735V18.9598C16.0417 18.1548 16.6936 17.5015 17.5 17.5015C18.3065 17.5015 18.9584 18.1548 18.9584 18.9598V25.3735L20.844 23.4879C21.4142 22.9177 22.3359 22.9177 22.9061 23.4879Z" fill="currentColor"/>
</g>
<defs>
<clipPath id="rclip0_6_159">
<rect width="35" height="35" fill="currentColor"/>
</clipPath>
</defs>
</symbol><symbol viewBox="0 0 35 35" fill="none" id="scroll" xmlns="http://www.w3.org/2000/svg">
<g clip-path="url(#sclip0_71_383)">
<path d="M18.9583 4.375V1.45833C18.9583 1.07156 18.8047 0.700627 18.5312 0.427136C18.2577 0.153645 17.8868 0 17.5 0C17.1132 0 16.7423 0.153645 16.4688 0.427136C16.1953 0.700627 16.0416 1.07156 16.0416 1.45833V4.375C13.3352 4.37809 10.7404 5.4546 8.82668 7.36836C6.91291 9.28213 5.8364 11.8769 5.83331 14.5833V23.3333C5.83331 26.4275 7.06248 29.395 9.2504 31.5829C11.4383 33.7708 14.4058 35 17.5 35C20.5942 35 23.5616 33.7708 25.7496 31.5829C27.9375 29.395 29.1666 26.4275 29.1666 23.3333V14.5833C29.1636 11.8769 28.087 9.28213 26.1733 7.36836C24.2595 5.4546 21.6648 4.37809 18.9583 4.375ZM26.25 23.3333C26.25 25.654 25.3281 27.8796 23.6872 29.5205C22.0462 31.1615 19.8206 32.0833 17.5 32.0833C15.1793 32.0833 12.9537 31.1615 11.3128 29.5205C9.67185 27.8796 8.74998 25.654 8.74998 23.3333V14.5833C8.7523 12.6502 9.52127 10.7969 10.8882 9.4299C12.2552 8.06295 14.1085 7.29398 16.0416 7.29167H18.9583C20.8915 7.29398 22.7448 8.06295 24.1117 9.4299C25.4787 10.7969 26.2477 12.6502 26.25 14.5833V23.3333Z" fill="currentColor"/>
<path d="M17.5 10.2083C17.1132 10.2083 16.7423 10.362 16.4688 10.6355C16.1953 10.909 16.0417 11.2799 16.0417 11.6667V14.5833C16.0417 14.9701 16.1953 15.3411 16.4688 15.6145C16.7423 15.888 17.1132 16.0417 17.5 16.0417C17.8868 16.0417 18.2577 15.888 18.5312 15.6145C18.8047 15.3411 18.9584 14.9701 18.9584 14.5833V11.6667C18.9584 11.2799 18.8047 10.909 18.5312 10.6355C18.2577 10.362 17.8868 10.2083 17.5 10.2083Z" fill="currentColor"/>
</g>
<defs>
<clipPath id="sclip0_71_383">
<rect width="35" height="35" fill="currentColor"/>
</clipPath>
</defs>
</symbol><symbol viewBox="0 0 35 35" fill="none" id="swiper" xmlns="http://www.w3.org/2000/svg">
<path d="M10.8092 35L8.75 32.9408L23.1598 18.531C23.4332 18.2576 23.5868 17.8867 23.5868 17.5C23.5868 17.1133 23.4332 16.7424 23.1598 16.4689L8.77479 2.08686L10.8369 0.0247803L25.219 14.4069C26.0391 15.2273 26.4999 16.3399 26.4999 17.5C26.4999 18.6601 26.0391 19.7727 25.219 20.5931L10.8092 35Z" fill="currentColor"/>
</symbol><symbol viewBox="0 0 35 35" fill="none" id="tabs" xmlns="http://www.w3.org/2000/svg">
<path d="M27.7083 1.45834H7.29167C3.27104 1.45834 0 4.72939 0 8.75001V26.25C0 30.2706 3.27104 33.5417 7.29167 33.5417H27.7083C31.729 33.5417 35 30.2706 35 26.25V8.75001C35 4.72939 31.729 1.45834 27.7083 1.45834ZM32.0833 26.25C32.0833 28.6621 30.1204 30.625 27.7083 30.625H7.29167C4.87958 30.625 2.91667 28.6621 2.91667 26.25V8.75001C2.91667 6.33793 4.87958 4.37501 7.29167 4.37501H27.7083C30.1204 4.37501 32.0833 6.33793 32.0833 8.75001V26.25ZM27.7083 10.2083C27.7083 11.0133 27.055 11.6667 26.25 11.6667H16.0417C15.2367 11.6667 14.5833 11.0133 14.5833 10.2083C14.5833 9.40334 15.2367 8.75001 16.0417 8.75001H26.25C27.055 8.75001 27.7083 9.40334 27.7083 10.2083ZM11.6667 10.2083C11.6667 11.4158 10.6867 12.3958 9.47917 12.3958C8.27167 12.3958 7.29167 11.4158 7.29167 10.2083C7.29167 9.00084 8.27167 8.02084 9.47917 8.02084C10.6867 8.02084 11.6667 9.00084 11.6667 10.2083ZM27.7083 17.5C27.7083 18.305 27.055 18.9583 26.25 18.9583H16.0417C15.2367 18.9583 14.5833 18.305 14.5833 17.5C14.5833 16.695 15.2367 16.0417 16.0417 16.0417H26.25C27.055 16.0417 27.7083 16.695 27.7083 17.5ZM11.6667 17.5C11.6667 18.7075 10.6867 19.6875 9.47917 19.6875C8.27167 19.6875 7.29167 18.7075 7.29167 17.5C7.29167 16.2925 8.27167 15.3125 9.47917 15.3125C10.6867 15.3125 11.6667 16.2925 11.6667 17.5ZM27.7083 24.7917C27.7083 25.5967 27.055 26.25 26.25 26.25H16.0417C15.2367 26.25 14.5833 25.5967 14.5833 24.7917C14.5833 23.9867 15.2367 23.3333 16.0417 23.3333H26.25C27.055 23.3333 27.7083 23.9867 27.7083 24.7917ZM11.6667 24.7917C11.6667 25.9992 10.6867 26.9792 9.47917 26.9792C8.27167 26.9792 7.29167 25.9992 7.29167 24.7917C7.29167 23.5842 8.27167 22.6042 9.47917 22.6042C10.6867 22.6042 11.6667 23.5842 11.6667 24.7917Z" fill="currentColor"/>
</symbol><symbol viewBox="0 0 35 35" fill="none" id="theme" xmlns="http://www.w3.org/2000/svg">
<g clip-path="url(#vclip0_10_714)">
<path d="M27.7083 0H7.29167C3.26667 0 0 3.26667 0 7.29167V27.7083C0 31.7333 3.26667 35 7.29167 35H27.7083C31.7333 35 35 31.7333 35 27.7083V7.29167C35 3.26667 31.7333 0 27.7083 0ZM32.0833 21.2771L21.2771 32.0833H15.1958L32.0979 15.1813V21.2625L32.0833 21.2771ZM29.5896 3.35417L3.33958 29.5896C3.0625 29.0208 2.91667 28.3792 2.91667 27.7083V23.9312L23.9312 2.91667H27.7083C28.3792 2.91667 29.0208 3.07708 29.5896 3.33958V3.35417ZM2.91667 13.7229L13.7229 2.91667H19.8042L2.91667 19.8188V13.7375V13.7229ZM7.29167 2.91667H9.61042L2.91667 9.61042V7.29167C2.91667 4.88542 4.88542 2.91667 7.29167 2.91667ZM5.41042 31.6604L31.6604 5.41042C31.9375 5.97917 32.0833 6.62083 32.0833 7.29167V11.0688L11.0688 32.0833H7.29167C6.62083 32.0833 5.97917 31.9229 5.41042 31.6604ZM27.7083 32.0833H25.3896L32.0833 25.3896V27.7083C32.0833 30.1146 30.1146 32.0833 27.7083 32.0833Z" fill="currentColor"/>
</g>
<defs>
<clipPath id="vclip0_10_714">
<rect width="35" height="35" fill="currentColor"/>
</clipPath>
</defs>
</symbol><symbol viewBox="0 0 35 35" fill="none" id="upload" xmlns="http://www.w3.org/2000/svg">
<g clip-path="url(#wclip0_49_133)">
<path d="M1.56167 10.2623L4.21584 11.4698C3.64271 12.7298 3.2548 14.0627 3.06084 15.4335L0.17334 15.0267C0.406673 13.3802 0.87334 11.776 1.56167 10.2623ZM6.44271 27.0083L4.23188 28.9115C5.31688 30.1715 6.57251 31.271 7.96813 32.1781L9.55917 29.734C8.39688 28.9756 7.34834 28.0598 6.44271 27.0083ZM0.17334 19.9733C0.406673 21.6198 0.87334 23.224 1.56167 24.7377L4.21584 23.5302C3.64271 22.2702 3.2548 20.9373 3.06084 19.5665L0.17334 19.9733ZM4.2173 6.10604L6.43105 8.00625C7.33813 6.94896 8.39105 6.02875 9.56063 5.26604L7.96813 2.82187C6.56813 3.73479 5.30521 4.83875 4.2173 6.10604ZM16.0415 26.25H18.9581V12.9631L23.1756 17.0844L25.2129 14.999L19.7908 9.69938C18.5658 8.47438 16.4192 8.48604 15.2204 9.68771L9.78667 14.999L11.824 17.0844L16.0415 12.9646V26.25ZM17.4998 0C15.7994 0 14.1179 0.243542 12.5006 0.723333L13.3304 3.52042C14.6779 3.12083 16.0808 2.91667 17.4983 2.91667C25.5396 2.91667 32.0817 9.45875 32.0817 17.5C32.0817 25.5413 25.5396 32.0833 17.4983 32.0833C16.0794 32.0833 14.6779 31.8792 13.3304 31.4796L12.5006 34.2767C14.1179 34.7565 15.7994 35 17.4998 35C27.1496 35 34.9998 27.1498 34.9998 17.5C34.9998 7.85021 27.1496 0 17.4998 0Z" fill="currentColor"/>
</g>
<defs>
<clipPath id="wclip0_49_133">
<rect width="35" height="35" fill="currentColor"/>
</clipPath>
</defs>
</symbol><symbol viewBox="0 0 35 35" fill="none" id="verticalMenu" xmlns="http://www.w3.org/2000/svg">
<g clip-path="url(#xclip0_7_83)">
<path d="M10.2083 0H5.83333C4.28624 0 2.80251 0.614582 1.70854 1.70854C0.614582 2.80251 0 4.28624 0 5.83333L0 10.2083C0 11.7554 0.614582 13.2392 1.70854 14.3331C2.80251 15.4271 4.28624 16.0417 5.83333 16.0417H10.2083C11.7554 16.0417 13.2392 15.4271 14.3331 14.3331C15.4271 13.2392 16.0417 11.7554 16.0417 10.2083V5.83333C16.0417 4.28624 15.4271 2.80251 14.3331 1.70854C13.2392 0.614582 11.7554 0 10.2083 0ZM13.125 10.2083C13.125 10.9819 12.8177 11.7237 12.2707 12.2707C11.7237 12.8177 10.9819 13.125 10.2083 13.125H5.83333C5.05979 13.125 4.31792 12.8177 3.77094 12.2707C3.22396 11.7237 2.91667 10.9819 2.91667 10.2083V5.83333C2.91667 5.05979 3.22396 4.31792 3.77094 3.77094C4.31792 3.22396 5.05979 2.91667 5.83333 2.91667H10.2083C10.9819 2.91667 11.7237 3.22396 12.2707 3.77094C12.8177 4.31792 13.125 5.05979 13.125 5.83333V10.2083Z" fill="currentColor"/>
<path d="M10.2083 18.9583H5.83333C4.28624 18.9583 2.80251 19.5729 1.70854 20.6669C0.614582 21.7608 0 23.2446 0 24.7917L0 29.1667C0 30.7138 0.614582 32.1975 1.70854 33.2915C2.80251 34.3854 4.28624 35 5.83333 35H10.2083C11.7554 35 13.2392 34.3854 14.3331 33.2915C15.4271 32.1975 16.0417 30.7138 16.0417 29.1667V24.7917C16.0417 23.2446 15.4271 21.7608 14.3331 20.6669C13.2392 19.5729 11.7554 18.9583 10.2083 18.9583ZM13.125 29.1667C13.125 29.9402 12.8177 30.6821 12.2707 31.2291C11.7237 31.7761 10.9819 32.0833 10.2083 32.0833H5.83333C5.05979 32.0833 4.31792 31.7761 3.77094 31.2291C3.22396 30.6821 2.91667 29.9402 2.91667 29.1667V24.7917C2.91667 24.0181 3.22396 23.2763 3.77094 22.7293C4.31792 22.1823 5.05979 21.875 5.83333 21.875H10.2083C10.9819 21.875 11.7237 22.1823 12.2707 22.7293C12.8177 23.2763 13.125 24.0181 13.125 24.7917V29.1667Z" fill="currentColor"/>
<path d="M32.5106 27.7798L29.1667 31.1194V3.83981L32.5106 7.17939C32.6461 7.31479 32.807 7.42217 32.984 7.49541C33.161 7.56865 33.3506 7.60631 33.5422 7.60625C33.7337 7.60618 33.9234 7.56838 34.1003 7.49502C34.2773 7.42165 34.4381 7.31415 34.5734 7.17866C34.7088 7.04317 34.8162 6.88233 34.8895 6.70533C34.9627 6.52834 35.0004 6.33865 35.0003 6.1471C35.0002 5.95555 34.9624 5.76589 34.8891 5.58895C34.8157 5.41201 34.7082 5.25125 34.5727 5.11585L30.8 1.34897C29.9797 0.529678 28.8677 0.0694885 27.7083 0.0694885C26.549 0.0694885 25.437 0.529678 24.6167 1.34897L20.844 5.11585C20.7085 5.25125 20.601 5.41201 20.5276 5.58895C20.4542 5.76589 20.4164 5.95555 20.4164 6.1471C20.4163 6.33865 20.454 6.52834 20.5272 6.70533C20.6005 6.88233 20.7078 7.04317 20.8432 7.17866C20.9786 7.31415 21.1394 7.42165 21.3163 7.49502C21.4933 7.56838 21.6829 7.60618 21.8745 7.60625C22.066 7.60631 22.2557 7.56865 22.4327 7.49541C22.6097 7.42217 22.7706 7.31479 22.9061 7.17939L26.25 3.83981V31.1194L22.9061 27.7798C22.7706 27.6444 22.6097 27.537 22.4327 27.4638C22.2557 27.3905 22.066 27.3529 21.8745 27.3529C21.6829 27.353 21.4933 27.3908 21.3163 27.4642C21.1394 27.5375 20.9786 27.645 20.8432 27.7805C20.7078 27.916 20.6005 28.0769 20.5272 28.2539C20.454 28.4309 20.4163 28.6205 20.4164 28.8121C20.4164 29.0036 20.4542 29.1933 20.5276 29.3702C20.601 29.5472 20.7085 29.708 20.844 29.8433L24.6167 33.6102C25.437 34.4295 26.549 34.8897 27.7083 34.8897C28.8677 34.8897 29.9797 34.4295 30.8 33.6102L34.5727 29.8433C34.7082 29.708 34.8157 29.5472 34.8891 29.3702C34.9624 29.1933 35.0002 29.0036 35.0003 28.8121C35.0004 28.6205 34.9627 28.4309 34.8895 28.2539C34.8162 28.0769 34.7088 27.916 34.5734 27.7805C34.4381 27.645 34.2773 27.5375 34.1003 27.4642C33.9234 27.3908 33.7337 27.353 33.5422 27.3529C33.3506 27.3529 33.161 27.3905 32.984 27.4638C32.807 27.537 32.6461 27.6444 32.5106 27.7798Z" fill="currentColor"/>
</g>
<defs>
<clipPath id="xclip0_7_83">
<rect width="35" height="35" fill="currentColor"/>
</clipPath>
</defs>
</symbol><symbol viewBox="0 0 35 35" fill="none" id="vision" xmlns="http://www.w3.org/2000/svg">
<g clip-path="url(#yclip0_63_136)">
<path d="M21.6242 27.812C22.4642 28.652 22.0121 30.0855 20.8454 30.3014C20.8337 30.3028 20.8221 30.3057 20.8104 30.3072C20.3408 30.3932 19.8537 30.2299 19.5154 29.8916L3.23167 13.6093C2.70521 13.0828 2.65271 12.2501 3.11062 11.6639C3.11646 11.6566 3.12229 11.6478 3.12958 11.6405C3.67062 10.9493 4.70458 10.891 5.32437 11.5122L21.6242 27.812ZM0.769998 15.2732C0.561457 15.6699 0.389373 16.0228 0.259582 16.3057C-0.0860433 17.0655 -0.0860433 17.9362 0.259582 18.6974C0.319373 18.8301 0.396665 18.9876 0.473957 19.1466L9.1 27.7726C10.2404 28.913 11.6637 29.7355 13.2315 30.1103C13.3569 30.141 13.4837 30.1687 13.6121 30.1964C14.3952 30.3655 14.9275 29.4322 14.3617 28.8664L0.769998 15.2732ZM34.5727 32.5107C35.1429 33.081 35.1429 34.0026 34.5727 34.5728C34.2883 34.8572 33.915 35.0001 33.5417 35.0001C33.1683 35.0001 32.795 34.8572 32.5106 34.5728L0.42729 2.4895C-0.142918 1.91929 -0.142918 0.99762 0.42729 0.427412C0.997498 -0.142796 1.91917 -0.142796 2.48937 0.427412L8.71354 6.65158C11.394 5.14075 14.3456 4.37512 17.5 4.37512C26.53 4.37512 31.675 10.5555 33.9369 14.2393C35.3631 16.561 35.3631 19.4455 33.9369 21.7672C33.0152 23.2678 31.4898 25.3737 29.3023 27.2403L34.5727 32.5107ZM10.8719 8.80991L13.4794 11.4174C16.3085 9.54637 20.1673 9.85554 22.6567 12.3449C25.146 14.8357 25.4552 18.693 23.5842 21.5222L27.2329 25.171C29.2279 23.5157 30.6192 21.598 31.4533 20.2403C32.3006 18.8607 32.3006 17.1457 31.4533 15.7662C29.5094 12.6016 25.111 7.29179 17.5015 7.29179C15.1404 7.29179 12.9165 7.8022 10.8719 8.80991ZM21.4477 19.3857C22.2221 17.7597 21.9377 15.7516 20.5946 14.407C19.25 13.0624 17.2404 12.7795 15.6158 13.5539L21.4492 19.3872L21.4477 19.3857Z" fill="currentColor"/>
</g>
<defs>
<clipPath id="yclip0_63_136">
<rect width="35" height="35" fill="currentColor"/>
</clipPath>
</defs>
</symbol></svg>